<?xml version="1.0" encoding="UTF-8" standalone="no"?>
<svg
   xmlns:dc="http://purl.org/dc/elements/1.1/"
   xmlns:cc="http://creativecommons.org/ns#"
   xmlns:rdf="http://www.w3.org/1999/02/22-rdf-syntax-ns#"
   xmlns:svg="http://www.w3.org/2000/svg"
   xmlns="http://www.w3.org/2000/svg"
   viewBox="0 0 550.66669 550.66669"
   height="550.66669"
   width="550.66669"
   xml:space="preserve"
   id="svg2"
   version="1.1"><metadata
     id="metadata8"><rdf:RDF><cc:Work
         rdf:about=""><dc:format>image/svg+xml</dc:format><dc:type
           rdf:resource="http://purl.org/dc/dcmitype/StillImage" /></cc:Work></rdf:RDF></metadata><defs
     id="defs6"><clipPath
       id="clipPath36"
       clipPathUnits="userSpaceOnUse"><path
         id="path34"
         d="M 0,413 H 413 V 0 H 0 Z" /></clipPath><linearGradient
       id="linearGradient58"
       spreadMethod="pad"
       gradientTransform="matrix(43.64513,15.783379,-17.424459,39.534519,157.30794,229.42419)"
       gradientUnits="userSpaceOnUse"
       y2="0"
       x2="1"
       y1="0"
       x1="0"><stop
         id="stop54"
         offset="0"
         style="stop-opacity:1;stop-color:#099ef6" /><stop
         id="stop56"
         offset="1"
         style="stop-opacity:1;stop-color:#f66452" /></linearGradient></defs><g
     transform="matrix(1.3333333,0,0,-1.3333333,0,550.66667)"
     id="g10"><path
       id="path12"
       style="fill:#32375c;fill-opacity:1;fill-rule:nonzero;stroke:none"
       d="M 0,0 H 413 V 413 H 0 Z" /><g
       transform="translate(240.7523,264)"
       id="g14"><path
         id="path16"
         style="fill:#ffffff;fill-opacity:1;fill-rule:nonzero;stroke:none"
         d="M 0,0 0.248,-51.928 -12.505,-52 -12.752,-0.072 Z" /></g><g
       transform="translate(259.9255,244)"
       id="g18"><path
         id="path20"
         style="fill:#ffffff;fill-opacity:1;fill-rule:nonzero;stroke:none"
         d="M 0,0 0.074,-12.748 -50.851,-13 -50.926,-0.252 Z" /></g><g
       transform="translate(203.1199,196.8065)"
       id="g22"><path
         id="path24"
         style="fill:#ffffff;fill-opacity:1;fill-rule:nonzero;stroke:none"
         d="m 0,0 -42.183,-42.562 -9.057,8.949 42.183,42.562 z" /></g><g
       transform="translate(203.7522,163.9402)"
       id="g26"><path
         id="path28"
         style="fill:#ffffff;fill-opacity:1;fill-rule:nonzero;stroke:none"
         d="m 0,0 -8.943,-9.057 -42.561,42.177 8.942,9.057 z" /></g><g
       id="g30"><g
         clip-path="url(#clipPath36)"
         id="g32"><g
           transform="translate(234.6765,193.364)"
           id="g38"><path
             id="path40"
             style="fill:#ffffff;fill-opacity:1;fill-rule:nonzero;stroke:none"
             d="m 0,0 c 7.177,0 13.041,-5.966 13.041,-13.38 0,-7.413 -5.864,-13.379 -13.041,-13.379 -7.177,0 -13.041,5.966 -13.041,13.379 C -13.041,-5.966 -7.177,0 0,0 m 0,12.636 c -14.206,0 -25.677,-11.672 -25.677,-26.016 0,-14.343 11.471,-26.015 25.677,-26.015 14.206,0 25.677,11.672 25.677,26.015 C 25.677,0.964 14.206,12.636 0,12.636" /></g></g></g><g
       id="g42"><g
         id="g44"><g
           id="g50"><g
             id="g52"><path
               id="path60"
               style="fill:url(#linearGradient58);stroke:none"
               d="m 185.129,248.487 c 3.441,-2.453 5.588,-6.499 5.588,-10.954 v 0 c 0,-7.386 -5.855,-13.343 -13.04,-13.343 v 0 c -7.185,0 -13.04,5.957 -13.04,13.343 v 0 c 0,4.418 2.113,8.436 5.504,10.895 v 0 l -8.435,9.507 C 155.686,253.084 152,245.64 152,237.533 v 0 c 0,-14.37 11.48,-26.05 25.677,-26.05 v 0 c 14.198,0 25.677,11.68 25.677,26.05 v 0 c 0,8.143 -3.718,15.616 -9.786,20.467 v 0 z" /></g></g></g></g></g></svg>