
<svg width="112px" height="28px" viewBox="0 0 112 28" version="1.1" xmlns="http://www.w3.org/2000/svg" xmlns:xlink="http://www.w3.org/1999/xlink">
    <defs>
        <linearGradient x1="10.5334559%" y1="62.2569647%" x2="95.5219238%" y2="27.382531%" id="linearGradient-1n-r5_mk_z-1">
            <stop stop-color="#099EF6" offset="0%"></stop>
            <stop stop-color="#F66452" offset="100%"></stop>
        </linearGradient>
    </defs>
    <g id="Page-1" stroke="none" stroke-width="1" fill="none" fill-rule="evenodd">
        <g id="Group" fill-rule="nonzero">
            <g id="Group-Copy" transform="translate(30.205385, 0.000000)" fill="#FFFFFF">
                <polygon id="Path-2" transform="translate(13.512935, 13.968090) rotate(0.000000) translate(-13.512935, -13.968090) " points="16.8261477 2.39281434e-08 16.9574091 27.8974657 10.199723 27.9361793 10.0684616 0.0387136063"></polygon>
                <polygon id="Path-2" points="26.9864191 10.7446844 27.0258707 17.5933702 0.0394516429 17.7287292 0 10.8800434"></polygon>
            </g>
            <g id="Group-2" transform="translate(56.701337, 0.000000)" fill="#FFFFFF">
                <polygon id="Path-2-Copy" transform="translate(13.676891, 14.134309) rotate(-315.000000) translate(-13.676891, -14.134309) " points="16.9793923 -1.98271794 17.1213648 30.2100967 10.3743898 30.2513351 10.2324173 -1.94147957"></polygon>
                <polygon id="Path-2-Copy-2" transform="translate(13.941851, 13.865691) rotate(-315.000000) translate(-13.941851, -13.865691) " points="29.7965728 10.3736691 29.8394216 17.2113134 -1.91287162 17.3577139 -1.95572044 10.5200696"></polygon>
            </g>
            <path d="M98.3935227,0 C90.8657362,0 84.7870455,6.27053723 84.7870455,13.9764562 C84.7870455,21.6823753 90.8657362,27.9529125 98.3935227,27.9529125 C105.921309,27.9529125 112,21.6823753 112,13.9764562 C112,6.27053723 105.921309,0 98.3935227,0 Z M98.3935227,6.78849157 C102.196906,6.78849157 105.303943,9.99358834 105.303943,13.9764562 C105.303943,17.9593241 102.196906,21.1644209 98.3935227,21.1644209 C94.5901395,21.1644209 91.4831024,17.9593241 91.4831024,13.9764562 C91.4831024,9.99358834 94.5901395,6.78849157 98.3935227,6.78849157 Z" id="Oval-Copy-6" fill="#FFFFFF"></path>
            <g id="Group-10-Copy" transform="translate(0.000000, 2.685732)" fill="url(#linearGradient-1n-r5_mk_z-1)">
                <path d="M22.0285385,0.000880258192 C25.2434529,2.60698039 27.2135555,6.62187949 27.2135555,10.9956613 C27.2135555,18.7162193 21.1305227,24.9912355 13.6067777,24.9912355 C6.08303274,24.9912355 0,18.7162193 0,10.9956613 C0,6.64045413 1.95340703,2.64131466 5.14367093,0.0345195034 L9.61373762,5.14294944 C7.81634411,6.4638101 6.69665786,8.62231299 6.69665786,10.9956613 C6.69665786,14.9638903 9.79935307,18.1645081 13.6067777,18.1645081 C17.4142024,18.1645081 20.5168976,14.9638903 20.5168976,10.9956613 C20.5168976,8.60315427 19.3790854,6.42886936 17.5558847,5.11093912 Z" id="Combined-Shape"></path>
            </g>
        </g>
    </g>
</svg>
