<svg xmlns="http://www.w3.org/2000/svg" role="img" viewBox="199.57 195.69 150.49 152.49"><defs><linearGradient id="b" x1="0" x2="1" y1="0" y2="0" gradientTransform="matrix(43.64513 15.78338 -17.42446 39.53452 157.308 229.424)" gradientUnits="userSpaceOnUse" spreadMethod="pad"><stop offset="0" stop-color="#099ef6" stop-opacity="1"/><stop offset="1" stop-color="#f66452" stop-opacity="1"/></linearGradient><clipPath id="a" clipPathUnits="userSpaceOnUse"><path d="M0 413h413V0H0z"/></clipPath></defs><g transform="matrix(1.33333 0 0 -1.33333 0 550.667)"><path fill="#32375c" fill-opacity="1" fill-rule="nonzero" stroke="none" d="M240.752 264l.248-51.928-12.753-.072-.247 51.928z"/><path fill="#32375c" fill-opacity="1" fill-rule="nonzero" stroke="none" d="M259.925 244l.074-12.748-50.925-.252-.075 12.748z"/><path fill="#32375c" fill-opacity="1" fill-rule="nonzero" stroke="none" d="M203.12 196.806l-42.183-42.562-9.057 8.949 42.183 42.562z"/><path fill="#32375c" fill-opacity="1" fill-rule="nonzero" stroke="none" d="M203.752 163.94l-8.943-9.057-42.561 42.177 8.942 9.057z"/><g clip-path="url(#a)"><path fill="#32375c" fill-opacity="1" fill-rule="nonzero" stroke="none" d="M234.677 193.364c-7.177 0-13.041-5.966-13.041-13.38 0-7.413 5.864-13.379 13.041-13.379 7.177 0 13.041 5.966 13.041 13.379 0 7.414-5.864 13.38-13.041 13.38m0 12.636c14.206 0 25.677-11.672 25.677-26.016 0-14.343-11.471-26.015-25.677-26.015S209 165.641 209 179.984C209 194.328 220.471 206 234.677 206"/></g><path fill="url(#b)" stroke="none" d="M185.129 248.487c3.441-2.453 5.588-6.499 5.588-10.954 0-7.386-5.855-13.343-13.04-13.343-7.185 0-13.04 5.957-13.04 13.343 0 4.418 2.113 8.436 5.504 10.895l-8.435 9.507c-6.02-4.851-9.706-12.295-9.706-20.402 0-14.37 11.48-26.05 25.677-26.05 14.198 0 25.677 11.68 25.677 26.05 0 8.143-3.718 15.616-9.786 20.467z"/></g></svg>