
<svg width="146px" height="148px" viewBox="0 0 146 148" version="1.1" xmlns="http://www.w3.org/2000/svg" xmlns:xlink="http://www.w3.org/1999/xlink">
    <defs>
        <linearGradient x1="10.3359816%" y1="40.6210305%" x2="95.3247459%" y2="68.4606394%" id="linearGradient-0cbjib0-n3-1">
            <stop stop-color="#099EF6" offset="0%"></stop>
            <stop stop-color="#F66452" offset="100%"></stop>
        </linearGradient>
    </defs>
    <g id="Page-1" stroke="none" stroke-width="1" fill="none" fill-rule="evenodd">
        <g id="logo-3" transform="translate(0.506528, 0.666679)" fill-rule="nonzero">
            <g id="g10" transform="translate(72.315732, 73.353998) scale(-1, 1) rotate(-180.000000) translate(-72.315732, -73.353998) translate(0.000000, 0.000000)">
                <g id="g14" transform="translate(101.493864, 77.374665)" fill="#FFFFFF">
                    <polygon id="path16" points="17.0026662 69.3333316 17.3333329 0.0959999976 0.329333325 0 0 69.2373316"></polygon>
                </g>
                <g id="g18" transform="translate(76.159465, 102.707997)" fill="#FFFFFF">
                    <polygon id="path20" points="67.9013316 17.3333329 67.9999983 0.335999992 0.0999999975 0 0 16.9973329"></polygon>
                </g>
                <g id="g22" transform="translate(0.000000, 0.367333)" fill="#FFFFFF">
                    <polygon id="path24" points="68.3199983 56.7493319 12.0759997 0 0 11.9319997 56.2439986 68.6813316"></polygon>
                </g>
                <g id="g26" transform="translate(0.491067, 1.218933)" fill="#FFFFFF">
                    <polygon id="path28" points="68.6719983 12.0759997 56.7479986 -2.36847573e-15 0 56.2359986 11.9226664 68.3119983"></polygon>
                </g>
                <g id="g30" transform="translate(76.159465, 0.000000)" fill="#FFFFFF">
                    <g id="g38" transform="translate(0.000000, -0.000000)">
                        <path d="M34.2359991,52.5266654 C43.8053322,52.5266654 51.6239987,44.5719989 51.6239987,34.6866658 C51.6239987,24.802666 43.8053322,16.8479996 34.2359991,16.8479996 C24.666666,16.8479996 16.8479996,24.802666 16.8479996,34.6866658 C16.8479996,44.5719989 24.666666,52.5266654 34.2359991,52.5266654 M34.2359991,69.3746649 C15.2946663,69.3746649 0,53.8119987 0,34.6866658 C0,15.5626663 15.2946663,0 34.2359991,0 C53.177332,0 68.4719983,15.5626663 68.4719983,34.6866658 C68.4719983,53.8119987 53.177332,69.3746649 34.2359991,69.3746649" id="path40"></path>
                    </g>
                </g>
                <g id="g52" transform="translate(0.160133, 76.685331)" fill="url(#linearGradient-0cbjib0-n3-1)">
                    <path d="M44.1719989,49.3386654 C48.7599988,46.0679988 51.6226654,40.6733323 51.6226654,34.7333325 L51.6226654,34.7333325 C51.6226654,24.8853327 43.8159989,16.9426662 34.2359991,16.9426662 L34.2359991,16.9426662 C24.6559994,16.9426662 16.8493329,24.8853327 16.8493329,34.7333325 L16.8493329,34.7333325 C16.8493329,40.623999 19.6666662,45.9813322 24.1879994,49.2599988 L24.1879994,49.2599988 L12.941333,61.9359985 C4.91466654,55.4679986 0,45.5426655 0,34.7333325 L0,34.7333325 C0,15.5733329 15.3066663,3.78956116e-14 34.2359991,3.78956116e-14 L34.2359991,3.78956116e-14 C53.1666653,3.78956116e-14 68.4719983,15.5733329 68.4719983,34.7333325 L68.4719983,34.7333325 C68.4719983,45.5906655 63.5146651,55.5546653 55.4239986,62.0226651 L55.4239986,62.0226651 L44.1719989,49.3386654 Z" id="path60"></path>
                </g>
            </g>
        </g>
    </g>
</svg>
