<?xml version="1.0" encoding="UTF-8" standalone="no"?>
<!DOCTYPE svg PUBLIC "-//W3C//DTD SVG 1.1//EN" "http://www.w3.org/Graphics/SVG/1.1/DTD/svg11.dtd">
<svg width="100%" height="100%" viewBox="0 0 150 150" version="1.1" xmlns="http://www.w3.org/2000/svg" xmlns:xlink="http://www.w3.org/1999/xlink" xml:space="preserve" xmlns:serif="http://www.serif.com/" style="fill-rule:evenodd;clip-rule:evenodd;stroke-linejoin:round;stroke-miterlimit:2;">
    <g transform="matrix(0.996744,0,0,0.983671,-2.84217e-14,0)">
        <rect x="0" y="0" width="150.49" height="152.49" style="fill:rgb(70,42,78);"/>
    </g>
    <g transform="matrix(1.0041,1.43748e-32,1.43748e-32,-1.0041,-130.44,286.448)">
        <path d="M240.752,264L241,212.072L228.247,212L228,263.928L240.752,264Z" style="fill:white;fill-rule:nonzero;"/>
        <path d="M259.925,244L259.999,231.252L209.074,231L208.999,243.748L259.925,244Z" style="fill:white;fill-rule:nonzero;"/>
        <path d="M203.12,196.806L160.937,154.244L151.88,163.193L194.063,205.755L203.12,196.806Z" style="fill:white;fill-rule:nonzero;"/>
        <path d="M203.752,163.94L194.809,154.883L152.248,197.06L161.19,206.117L203.752,163.94Z" style="fill:white;fill-rule:nonzero;"/>
        <g>
            <path d="M234.677,193.364C227.5,193.364 221.636,187.398 221.636,179.984C221.636,172.571 227.5,166.605 234.677,166.605C241.854,166.605 247.718,172.571 247.718,179.984C247.718,187.398 241.854,193.364 234.677,193.364M234.677,206C248.883,206 260.354,194.328 260.354,179.984C260.354,165.641 248.883,153.969 234.677,153.969C220.471,153.969 209,165.641 209,179.984C209,194.328 220.471,206 234.677,206" style="fill:white;fill-rule:nonzero;"/>
        </g>
        <path d="M185.129,248.487C188.57,246.034 190.717,241.988 190.717,237.533C190.717,230.147 184.862,224.19 177.677,224.19C170.492,224.19 164.637,230.147 164.637,237.533C164.637,241.951 166.75,245.969 170.141,248.428L161.706,257.935C155.686,253.084 152,245.64 152,237.533C152,223.163 163.48,211.483 177.677,211.483C191.875,211.483 203.354,223.163 203.354,237.533C203.354,245.676 199.636,253.149 193.568,258L185.129,248.487Z" style="fill:url(#_Linear1);fill-rule:nonzero;"/>
    </g>
    <defs>
        <linearGradient id="_Linear1" x1="0" y1="0" x2="1" y2="0" gradientUnits="userSpaceOnUse" gradientTransform="matrix(43.6451,15.7834,-15.7834,43.6451,157.308,229.424)"><stop offset="0" style="stop-color:rgb(6,200,127);stop-opacity:1"/><stop offset="1" style="stop-color:rgb(168,90,191);stop-opacity:1"/></linearGradient>
    </defs>
</svg>
