<?xml version="1.0" encoding="UTF-8" standalone="no"?>
<!DOCTYPE svg PUBLIC "-//W3C//DTD SVG 1.1//EN" "http://www.w3.org/Graphics/SVG/1.1/DTD/svg11.dtd">
<svg width="100%" height="100%" viewBox="0 0 150 150" version="1.1" xmlns="http://www.w3.org/2000/svg" xmlns:xlink="http://www.w3.org/1999/xlink" xml:space="preserve" xmlns:serif="http://www.serif.com/" style="fill-rule:evenodd;clip-rule:evenodd;stroke-linejoin:round;stroke-miterlimit:2;">
    <g transform="matrix(1,7.65714e-16,7.65714e-16,-1,2.68425,148.354)">
        <g id="Page-1">
            <g id="logo-3">
                <g id="g10">
                    <g id="g14" transform="matrix(1,0,0,1,101.494,77.3747)">
                        <path id="path16" d="M17.003,69.333L17.333,0.096L0.329,0L0,69.237L17.003,69.333Z" style="fill:white;fill-rule:nonzero;"/>
                    </g>
                    <g id="g18" transform="matrix(1,0,0,1,76.1595,102.708)">
                        <path id="path20" d="M67.901,17.333L68,0.336L0.1,0L0,16.997L67.901,17.333Z" style="fill:white;fill-rule:nonzero;"/>
                    </g>
                    <g id="g22" transform="matrix(1,0,0,1,0,0.367333)">
                        <path id="path24" d="M68.32,56.749L12.076,0L0,11.932L56.244,68.681L68.32,56.749Z" style="fill:white;fill-rule:nonzero;"/>
                    </g>
                    <g id="g26" transform="matrix(1,0,0,1,0.491067,1.21893)">
                        <path id="path28" d="M68.672,12.076L56.748,-0L0,56.236L11.923,68.312L68.672,12.076Z" style="fill:white;fill-rule:nonzero;"/>
                    </g>
                    <g id="g30" transform="matrix(1,0,0,1,76.1595,0)">
                        <g id="g38">
                            <path id="path40" d="M34.236,52.527C43.805,52.527 51.624,44.572 51.624,34.687C51.624,24.803 43.805,16.848 34.236,16.848C24.667,16.848 16.848,24.803 16.848,34.687C16.848,44.572 24.667,52.527 34.236,52.527M34.236,69.375C15.295,69.375 0,53.812 0,34.687C0,15.563 15.295,0 34.236,0C53.177,0 68.472,15.563 68.472,34.687C68.472,53.812 53.177,69.375 34.236,69.375" style="fill:white;fill-rule:nonzero;"/>
                        </g>
                    </g>
                    <g id="g52" transform="matrix(1,0,0,1,0.160133,76.6853)">
                        <path id="path60" d="M44.172,49.339C48.76,46.068 51.623,40.673 51.623,34.733C51.623,24.885 43.816,16.943 34.236,16.943C24.656,16.943 16.849,24.885 16.849,34.733C16.849,40.624 19.667,45.981 24.188,49.26L12.941,61.936C4.915,55.468 0,45.543 0,34.733C0,15.573 15.307,0 34.236,0C53.167,0 68.472,15.573 68.472,34.733C68.472,45.591 63.515,55.555 55.424,62.023L44.172,49.339Z" style="fill:url(#_Linear1);fill-rule:nonzero;"/>
                    </g>
                </g>
            </g>
        </g>
    </g>
    <defs>
        <linearGradient id="_Linear1" x1="0" y1="0" x2="1" y2="0" gradientUnits="userSpaceOnUse" gradientTransform="matrix(58.1935,17.2669,-17.2669,58.1935,7.07725,25.1942)"><stop offset="0" style="stop-color:rgb(6,200,127);stop-opacity:1"/><stop offset="1" style="stop-color:rgb(168,90,191);stop-opacity:1"/></linearGradient>
    </defs>
</svg>
