<?xml version="1.0" encoding="UTF-8" standalone="no"?>
<!DOCTYPE svg PUBLIC "-//W3C//DTD SVG 1.1//EN" "http://www.w3.org/Graphics/SVG/1.1/DTD/svg11.dtd">
<svg width="100%" height="100%" viewBox="0 0 362 107" version="1.1" xmlns="http://www.w3.org/2000/svg" xmlns:xlink="http://www.w3.org/1999/xlink" xml:space="preserve" xmlns:serif="http://www.serif.com/" style="fill-rule:evenodd;clip-rule:evenodd;stroke-linejoin:round;stroke-miterlimit:2;">
    <g>
        <g>
            <path d="M108.581,26.286L108.866,85.632L94.214,85.714L93.93,26.368L108.581,26.286Z" style="fill:white;fill-rule:nonzero;"/>
            <path d="M130.611,49.143L130.696,63.712L72.185,64L72.099,49.431L130.611,49.143Z" style="fill:white;fill-rule:nonzero;"/>
            <path d="M188.638,37.146L140.171,85.788L129.765,75.561L178.232,26.919L188.638,37.146Z" style="fill:white;fill-rule:nonzero;"/>
            <path d="M189.365,74.708L179.09,85.059L130.188,36.856L140.463,26.505L189.365,74.708Z" style="fill:white;fill-rule:nonzero;"/>
            <g>
                <path d="M219.945,40.727C228.191,40.727 234.928,47.545 234.928,56.018C234.928,64.49 228.191,71.309 219.945,71.309C211.698,71.309 204.961,64.49 204.961,56.018C204.961,47.545 211.698,40.727 219.945,40.727ZM219.945,26.286C203.622,26.286 190.442,39.625 190.442,56.018C190.442,72.41 203.622,85.75 219.945,85.75C236.267,85.75 249.447,72.41 249.447,56.018C249.447,39.625 236.267,26.286 219.945,26.286Z" style="fill:white;fill-rule:nonzero;"/>
            </g>
            <path d="M44.672,42.871C48.625,45.675 51.092,50.301 51.092,55.39C51.092,63.832 44.365,70.641 36.11,70.641C27.854,70.641 21.127,63.832 21.127,55.39C21.127,50.342 23.555,45.751 27.451,42.941L17.758,32.073C10.841,37.618 6.607,46.126 6.607,55.39C6.607,71.815 19.797,85.163 36.11,85.163C52.422,85.163 65.612,71.815 65.612,55.39C65.612,46.086 61.34,37.544 54.368,32L44.672,42.871Z" style="fill:url(#_Linear1);fill-rule:nonzero;"/>
            <g>
                <rect x="249.655" y="77.211" width="7.65" height="7.609" style="fill:white;"/>
            </g>
        </g>
    </g>
    <path d="M276.103,86L276.103,32.315L255.338,32.315L255.338,26.912L303.114,26.912L303.114,32.315L282.349,32.315L282.349,86L276.103,86ZM329.479,86L303.312,26.912L310.064,26.912L334.544,82.539L330.83,82.539L355.478,26.912L361.808,26.912L335.641,86L329.479,86Z" style="fill:white;fill-rule:nonzero;"/>
    <defs>
        <linearGradient id="_Linear1" x1="0" y1="0" x2="1" y2="0" gradientUnits="userSpaceOnUse" gradientTransform="matrix(50.0848,-18.2091,18.2091,50.0848,12.7059,64.6581)"><stop offset="0" style="stop-color:rgb(6,200,127);stop-opacity:1"/><stop offset="1" style="stop-color:rgb(168,90,191);stop-opacity:1"/></linearGradient>
    </defs>
</svg>
